<mxfile host="app.diagrams.net" modified="2023-06-29T09:01:10.622Z" agent="Mozilla/5.0 (Macintosh; Intel Mac OS X 10_15_7) AppleWebKit/537.36 (KHTML, like Gecko) Chrome/114.0.0.0 Safari/537.36" version="21.3.8" etag="brcTnSJbUspQNzX4XnWl" type="github">
  <diagram name="第 1 页" id="xe6hn0kKA3qz2ZaRr73Z">
    <mxGraphModel>
      <root>
        <mxCell id="0" />
        <mxCell id="1" parent="0" />
      </root>
    </mxGraphModel>
  </diagram>
</mxfile>
